<svg width="80" height="85" viewBox="0 0 80 85" fill="none" xmlns="http://www.w3.org/2000/svg">
<path d="M32.5374 3.55424C33.8971 3.43053 35.4962 3.82125 36.7074 4.29936C39.0502 3.40978 41.5619 3.13471 44.1068 4.39995C44.168 4.42763 44.222 4.45397 44.2611 4.47514C44.3264 4.51053 44.3927 4.54856 44.4525 4.58452C44.5633 4.65116 44.7097 4.7439 44.8109 4.8062C44.9034 4.86312 44.9799 4.90594 45.0394 4.93901C46.1719 4.99485 47.4304 4.87957 48.9037 6.05327H48.9027C49.7868 6.75418 50.4016 7.73861 50.6439 8.84038L50.6449 8.84331C50.7552 9.35124 50.7675 9.89571 50.7581 10.3628C50.7494 10.8022 50.7139 11.343 50.7015 11.6665V11.6675L50.5921 14.4859V14.4869L50.223 23.8912L50.222 23.9019L50.1185 26.0582C50.0747 26.9636 50.1184 27.1268 50.1576 27.233C50.1871 27.313 50.2342 27.406 50.3636 27.6402C50.4855 27.8607 50.6518 28.1592 50.8558 28.5777C51.0918 29.0605 51.3117 29.5512 51.515 30.0484L51.6869 30.4751C52.3685 32.2233 52.698 33.681 52.9349 35.3902C54.0292 35.416 55.0801 35.7417 56.0384 36.5279H56.0394C57.0882 37.3848 57.7492 38.6275 57.8734 39.9761C57.9821 41.1495 57.7335 42.0723 57.2728 42.896C57.5848 43.0944 57.8855 43.3156 58.1996 43.5767C58.3367 43.6908 58.4832 43.8302 58.5785 43.9175C58.6873 44.0173 58.7675 44.0865 58.8372 44.1382C58.8737 44.1064 58.9345 44.0552 59.0335 43.9654C59.1695 43.8421 59.3901 43.6525 59.7054 43.5123C60.0308 43.3676 60.3867 43.3051 60.7777 43.316H60.7806C61.4523 43.3368 62.0849 43.6361 62.5277 44.1412H62.5287C62.9959 44.6691 63.2231 45.4044 63.1576 46.0845C62.9245 48.5 61.7484 49.7765 60.4261 51.0181C60.3896 55.752 58.9027 60.3064 55.0531 63.5943C54.4265 64.1294 53.83 64.5377 53.2083 64.9341L53.2093 67.9371C53.5859 68.1334 53.9056 68.3932 54.1576 68.6275C54.4679 68.916 54.7514 69.2367 54.9535 69.4595C55.7275 70.313 56.5749 70.8082 57.6458 71.356L58.7972 71.9371L58.7992 71.938L61.6234 73.3804H61.6224C62.2802 73.7147 62.9697 74.0583 63.6537 74.4439C64.2003 74.752 64.5703 75.2297 64.7132 75.7925C64.8495 76.3298 64.7582 76.8587 64.5599 77.2847C64.1938 78.071 63.1873 78.9242 61.929 78.4761C61.1255 78.1899 60.0724 77.587 59.4779 77.2818V77.2808L55.5316 75.2564C53.3162 75.7477 51.0801 76.1399 48.8294 76.4302L48.8304 76.4312C39.3808 77.6574 29.7922 77.2571 20.4789 75.2515C20.0842 75.4389 19.5478 75.735 19.1146 75.9576L19.1136 75.9585L15.7962 77.6578C15.6858 77.7143 15.5673 77.7789 15.4271 77.856C15.2924 77.93 15.1389 78.0151 14.9808 78.0962C14.6732 78.2542 14.2821 78.4349 13.8587 78.5318C13.228 78.676 12.6375 78.4838 12.2269 78.2115C11.7213 77.8759 11.3741 77.3607 11.264 76.7515C11.1598 76.1742 11.2786 75.5548 11.6576 75.0464C11.7867 74.8733 11.9455 74.7476 12.0306 74.6832C12.1372 74.6025 12.2578 74.5229 12.3792 74.4468C12.6234 74.2937 12.9313 74.1192 13.2699 73.9361C13.9495 73.5686 14.8206 73.1293 15.7005 72.688C16.5881 72.243 17.4874 71.795 18.2484 71.4009C19.0241 70.9991 19.5793 70.6911 19.8333 70.5152C20.22 70.2404 20.5827 69.9314 20.9144 69.5923C21.3838 69.1093 21.9371 68.3405 22.9066 67.8931V63.2818C22.9081 62.3012 22.9411 61.2544 22.8802 60.3921C22.871 60.3713 22.8603 60.3452 22.846 60.315C22.7822 60.1801 22.6917 60.0046 22.5882 59.8111C22.4048 59.4679 22.1383 58.9915 22.0501 58.8169L22.0492 58.815C21.4265 57.578 20.9436 56.2754 20.6107 54.9312L20.6097 54.9273C19.7262 51.3169 20.0856 48.0508 21.6996 44.8736C21.4002 44.7182 21.0994 44.5328 20.7835 44.2935C18.7929 42.7849 17.8268 40.3641 18.1009 38.1685C18.2395 37.0585 18.6999 35.9857 19.5287 35.1392C20.1386 34.5163 20.9175 34.0474 21.8451 33.7691C21.7649 31.8455 22.133 30.1638 22.8519 28.3462C22.9084 28.2032 22.982 28.0483 23.0414 27.9224C23.1066 27.7841 23.1645 27.6612 23.2181 27.5386C23.2719 27.4157 23.3086 27.3195 23.3304 27.2476C23.3371 27.2255 23.3399 27.2096 23.3421 27.1998C23.3295 26.637 23.2966 26.062 23.2708 25.4556V25.4439C23.235 24.3481 23.19 23.2527 23.1371 22.1578V22.148L22.8109 14.1089L22.7025 11.3999V11.398C22.6477 9.98888 22.4487 8.36172 23.8275 6.72417L23.8294 6.72221C24.7649 5.6173 26.1355 4.97435 27.5833 4.96147H27.5853C27.9416 4.95893 28.0845 4.96355 28.2533 4.96049C28.3013 4.95962 28.3327 4.95888 28.3519 4.95757C28.3652 4.95079 28.3892 4.9396 28.4251 4.9185C28.5443 4.84857 28.6806 4.75877 28.9593 4.58452C29.9963 3.93621 31.5096 3.6415 32.5267 3.55522V3.55424H32.5296C32.5322 3.55403 32.5349 3.55348 32.5374 3.55327V3.55424Z" fill="#6C3337" stroke="black" stroke-width="2.29917"/>
<path d="M34.1041 27.6262L46.9895 27.6281C47.5826 28.6507 48.3805 30.0471 48.7763 31.1608C48.2008 31.2214 47.2786 31.3973 46.8889 31.8627C46.7182 32.0627 46.6352 32.3229 46.6586 32.5847C46.6785 32.816 46.7897 33.0298 46.9677 33.1788C47.6281 33.7283 48.4919 33.0951 49.2226 33.0728C49.2816 33.071 49.3749 33.0528 49.4383 33.0453C49.876 34.4972 50.1192 36.0007 50.1616 37.5164C49.9135 37.7782 49.7854 37.9151 49.5803 38.207C49.2867 38.1145 48.9259 37.9896 48.6333 37.9136C48.7381 37.34 48.7827 36.8931 48.4269 36.368C48.1734 35.9935 47.7739 35.7433 47.3262 35.6785C46.6363 35.5783 46.091 35.8849 45.7101 36.4378C45.2929 35.5838 44.9565 34.6465 44.4578 33.8525C43.869 32.915 42.4244 33.8233 42.824 34.6975C43.4995 36.1747 44.1622 37.8569 44.9086 39.2857C46.9633 39.3413 51.3719 39.977 51.3191 42.8461C51.2795 45.0014 47.8479 46.0225 46.1256 45.8278C44.7909 45.7539 43.4806 45.3842 42.5296 44.411C42.0026 43.8718 41.837 42.7001 41.0796 42.6856C38.8871 42.6435 36.9014 43.2245 35.2662 44.732C34.614 45.3331 34.0015 46.4603 33.1065 46.4564C32.0034 46.3782 31.428 44.8038 30.2143 45.8488C29.9563 46.0709 29.7734 46.4034 29.7931 46.7539C30.0359 51.1048 35.1771 53.6853 39.0087 53.7512C41.3042 53.7918 43.555 53.1143 45.4465 51.8135C45.8152 51.5619 46.505 50.9841 46.9149 50.8671C47.2192 50.7802 47.9827 51.3547 48.3077 51.514C51.464 53.0612 54.2209 53.0723 57.3865 51.7111C57.3064 52.6177 57.2369 53.4986 57.0457 54.3891C56.4659 57.0906 55.1119 59.5735 52.9712 61.3479C49.379 64.3256 44.9365 64.7037 40.4662 64.2979C39.8663 64.2444 39.2679 64.1738 38.672 64.0864C37.8376 63.9612 36.2249 63.3881 36.0926 64.7011C35.9857 65.7627 37.3125 65.8174 38.0608 65.9289C39.7109 66.183 41.3771 66.319 43.0466 66.3358C44.0879 66.3541 45.1291 66.3003 46.1629 66.1749C46.1404 66.3886 46.151 66.6051 46.1617 66.8198C46.2048 67.6852 46.1454 68.5848 46.2271 69.4453C46.033 69.4858 45.4061 69.5339 45.1949 69.5531C44.424 69.6236 43.652 69.6837 42.8794 69.7332C38.0284 70.0717 33.1556 69.9199 28.3351 69.2801C27.5623 69.1852 26.791 69.0794 26.0213 68.9629L26.0166 62.5167C26.0166 61.6218 26.0619 60.5359 25.9885 59.6546C25.9604 59.3154 25.323 58.3988 25.1078 57.9935C23.9198 55.755 22.9475 52.6983 23.3416 50.1365C23.4704 48.0696 24.4071 46.0105 25.6779 44.3929C25.8113 44.1879 26.0742 43.94 26.1421 43.7086C26.3587 42.9531 25.8964 42.4232 25.1258 42.4435C24.5652 42.4642 24.0596 42.4891 23.527 42.2858C22.5334 41.9067 21.6356 41.0137 21.3349 39.9894C20.3992 36.8008 23.7004 35.5549 25.7526 37.7777C26.2379 38.3033 26.1986 38.7385 26.4028 39.3833C26.5145 39.7276 26.883 39.9661 27.2537 39.9762C27.5224 39.9816 27.7825 39.8811 27.9778 39.6966C28.6452 39.0576 27.9635 37.5625 27.5726 36.9167C29.5293 35.9635 30.9121 34.803 31.784 32.7607C32.3987 31.3204 32.9715 28.7294 34.1041 27.6262Z" fill="#FADEBE"/>
<path d="M26.0213 68.9628L26.0166 62.5166C26.0167 61.6218 26.0619 60.5359 25.9885 59.6546C25.9604 59.3154 25.323 58.3987 25.1078 57.9935C23.9198 55.755 22.9476 52.6982 23.3417 50.1364C23.363 50.4854 23.5197 50.8938 23.5969 51.2454C24.1272 53.6628 25.391 55.842 26.8708 57.7985C27.1421 58.1572 28.2476 59.3203 28.2821 59.6536C28.433 61.1098 28.3034 62.6687 28.3448 64.142C28.3232 65.8304 28.3958 67.6469 28.3351 69.2801C27.5623 69.1851 26.791 69.0794 26.0213 68.9628Z" fill="#DDB18B"/>
<path d="M36.2736 31.5359C37.0513 31.4859 38.0583 31.6357 38.6578 32.1733C39.0288 32.506 39.1284 33.2152 38.7207 33.5624C38.2525 33.9612 37.756 33.8441 37.2447 33.6246C37.0194 33.5286 36.8097 33.5046 36.5656 33.4887C36.3571 33.4908 36.1705 33.4988 35.9636 33.5383C35.3854 33.6485 34.6946 34.0602 34.1558 33.654C33.9332 33.4843 33.7922 33.2289 33.7672 32.9503C33.6593 31.7876 35.456 31.594 36.2736 31.5359Z" fill="#6C3337"/>
<path d="M36.1924 35.6728C37.0765 35.5741 37.8762 36.2033 37.988 37.0855C38.0998 37.9678 37.4824 38.7763 36.6015 38.9011C36.0201 38.9835 35.4392 38.7464 35.0816 38.2807C34.7241 37.8148 34.6453 37.1927 34.8753 36.6525C35.1054 36.1124 35.6087 35.738 36.1924 35.6728Z" fill="#6C3337"/>
<path d="M29.3577 7.82202C29.7933 7.58364 30.1873 7.27866 30.6241 7.0559C31.9447 6.38635 33.4219 6.34939 34.8252 6.76452C35.4074 6.93673 36.0748 7.28921 36.6427 7.37704C37.0208 7.43553 37.9426 6.96474 38.3478 6.83231C39.8628 6.33729 41.4682 6.33504 42.8964 7.09393C43.2898 7.28998 43.8855 7.82349 44.3259 7.86242C45.5634 7.97174 46.878 7.63542 47.5855 8.99161C47.97 9.72854 47.7804 11.1344 47.7443 11.9554L47.6218 15.0175C47.4676 18.5646 47.2786 22.2705 47.1987 25.8134L29.3201 25.8137L26.2317 25.813C26.1527 22.167 25.9366 18.3151 25.7899 14.6528L25.6676 11.7332C25.6048 10.2472 25.2775 8.45231 27.1895 7.96778C27.8566 7.79875 28.7415 8.02279 29.3577 7.82202Z" fill="#F9F7E3"/>
<path d="M26.2317 25.813C26.1527 22.1669 25.9366 18.315 25.7899 14.6528L25.6676 11.7331C25.6048 10.2472 25.2775 8.45226 27.1895 7.96773C27.8566 7.7987 28.7415 8.02274 29.3577 7.82198C30.2778 10.1072 29.4914 20.1092 29.4122 23.1134C29.3904 23.9401 29.2653 24.9273 29.3201 25.8136L26.2317 25.813Z" fill="#FADEBE"/>
<path d="M32.1835 11.4881C32.3613 11.4827 32.5326 11.477 32.7029 11.5371C32.9329 11.6184 33.0989 11.7703 33.2016 11.9916C33.2761 12.1524 33.2808 12.3386 33.291 12.5132C33.3419 13.3808 33.4452 20.1917 33.3037 20.5246C33.1846 20.8048 32.9351 20.9387 32.6649 21.0434C32.515 21.0607 32.3778 21.0618 32.2316 21.0176C31.9889 20.9444 31.7991 20.7857 31.6833 20.5608C31.6204 20.4385 31.6028 20.303 31.5931 20.1675C31.5355 19.3562 31.4334 12.3786 31.5677 12.0183C31.6675 11.7507 31.9336 11.5902 32.1835 11.4881Z" fill="#2B1D1E"/>
<path d="M40.8124 11.4913C41.4817 11.432 41.9509 11.7726 41.9355 12.4992C41.88 15.136 41.9331 17.8181 41.7901 20.4497C41.7768 20.6947 41.3846 20.927 41.1765 21.0316C41.0243 21.0466 40.8591 21.0526 40.7107 21.0129C40.4783 20.9508 40.2599 20.8047 40.1486 20.586C40.0611 20.414 40.0637 20.1479 40.0571 19.9555C40.0267 19.0825 40.0855 12.383 40.1969 12.0554C40.296 11.7645 40.5556 11.6195 40.8124 11.4913Z" fill="#2B1D1E"/>
<path d="M24.303 70.8673C24.8496 70.8936 25.6213 71.0686 26.1872 71.1519C30.9141 71.8485 35.6594 72.1828 40.4394 72.016C44.219 71.8912 47.985 71.5001 51.7096 70.8455C52.2108 71.3333 52.6685 71.8743 53.1891 72.3733C52.7219 72.4794 52.1849 72.5694 51.7095 72.6597C42.1324 74.2997 32.3382 74.2051 22.7946 72.3805C23.3327 71.894 23.7778 71.3495 24.303 70.8673Z" fill="#F9F7E3"/>
<path d="M46.1629 66.1749C47.6499 65.9545 48.493 65.7547 49.9175 65.2803L49.9106 68.9769C48.7303 69.1433 47.4115 69.3497 46.2271 69.4453C46.1453 68.5848 46.2048 67.6852 46.1616 66.8198C46.151 66.6051 46.1404 66.3886 46.1629 66.1749Z" fill="#F9F7E3"/>
<path d="M52.6393 38.3356C52.9942 38.322 53.2925 38.3561 53.6242 38.4897C54.1395 38.6965 54.5514 39.0995 54.7691 39.61C54.9972 40.1535 54.9987 40.7654 54.7735 41.3101C54.4982 41.9695 54.055 42.2763 53.4192 42.5351C53.3641 42.5597 53.3504 42.556 53.2893 42.5659C53.2099 42.4658 53.1875 42.066 53.1421 41.878C52.8149 40.5237 52.1902 39.8925 51.1786 39.0408C51.6737 38.5927 51.9804 38.4302 52.6393 38.3356Z" fill="#FADEBE"/>
</svg>
